<svg xmlns="http://www.w3.org/2000/svg" id="Group_6" width="42.072" height="42.072" data-name="Group 6" viewBox="0 0 42.072 42.072">
    <defs>
        <style>
            .cls-1{fill:#3bb4c4}.cls-2{fill:#fff}
        </style>
    </defs>
    <circle id="Ellipse_8" cx="21.036" cy="21.036" r="21.036" class="cls-1" data-name="Ellipse 8"/>
    <path id="icon" d="M7.665 25.549A7.673 7.673 0 0 1 0 17.885V7.665A7.674 7.674 0 0 1 7.665 0h10.22a7.673 7.673 0 0 1 7.664 7.665v10.22a7.672 7.672 0 0 1-7.664 7.664zM2.555 7.665v10.22a5.116 5.116 0 0 0 5.111 5.109h10.22a5.116 5.116 0 0 0 5.109-5.109V7.665a5.116 5.116 0 0 0-5.109-5.111H7.665a5.116 5.116 0 0 0-5.11 5.111zm3.833 5.109a6.387 6.387 0 1 1 6.387 6.388 6.394 6.394 0 0 1-6.387-6.387zm2.555 0a3.832 3.832 0 1 0 3.832-3.832 3.836 3.836 0 0 0-3.832 3.833zm8.943-6.387a1.277 1.277 0 1 1 1.277 1.277 1.278 1.278 0 0 1-1.278-1.276z" class="cls-2" transform="translate(7.888 7.889)"/>
</svg>
