<svg xmlns="http://www.w3.org/2000/svg" id="quotation-mark" width="47.361" height="44.016" viewBox="0 0 47.361 44.016">
    <defs>
        <style>
            .cls-1{fill:#3bb4c4}
        </style>
    </defs>
    <path id="Path_10" d="M26.97 14.273v7.9a1.94 1.94 0 0 0 1.941 1.94c3.824 0 5.9 3.922 6.193 11.664H28.91a1.941 1.941 0 0 0-1.941 1.941v16.69a1.94 1.94 0 0 0 1.941 1.94h16.511a1.94 1.94 0 0 0 1.94-1.94V37.721a42.794 42.794 0 0 0-1.11-10.121 24.356 24.356 0 0 0-3.446-8.011 16.82 16.82 0 0 0-5.856-5.351 16.666 16.666 0 0 0-8.04-1.9 1.94 1.94 0 0 0-1.939 1.935zM1.941 24.117A1.941 1.941 0 0 1 0 22.177v-7.9a1.941 1.941 0 0 1 1.941-1.94 16.662 16.662 0 0 1 8.039 1.9 16.824 16.824 0 0 1 5.858 5.351 24.368 24.368 0 0 1 3.444 8.012 42.825 42.825 0 0 1 1.11 10.122v16.686a1.941 1.941 0 0 1-1.941 1.94H1.941A1.941 1.941 0 0 1 0 54.408V37.721a1.941 1.941 0 0 1 1.94-1.941h6.1c-.279-7.741-2.328-11.663-6.099-11.663z" class="cls-1" data-name="Path 10" transform="translate(0 -12.333)"/>
</svg>
