<svg xmlns="http://www.w3.org/2000/svg" id="quotation-mark" width="48.173" height="44.77" viewBox="0 0 48.173 44.77">
    <defs>
        <style>
            .cls-1{fill:#fff}
        </style>
    </defs>
    <path id="Path_10" d="M20.741 14.307v8.039a1.974 1.974 0 0 1-1.974 1.974c-3.89 0-6.005 3.989-6.3 11.863h6.3a1.974 1.974 0 0 1 1.974 1.974v16.972a1.974 1.974 0 0 1-1.974 1.971H1.974A1.973 1.973 0 0 1 0 55.129V38.156a43.526 43.526 0 0 1 1.129-10.3 24.773 24.773 0 0 1 3.5-8.149 17.109 17.109 0 0 1 5.956-5.443 16.951 16.951 0 0 1 8.178-1.935 1.973 1.973 0 0 1 1.978 1.978zM46.2 24.319a1.975 1.975 0 0 0 1.974-1.974v-8.038a1.974 1.974 0 0 0-1.974-1.974 16.393 16.393 0 0 0-14.134 7.378 24.786 24.786 0 0 0-3.5 8.149 43.558 43.558 0 0 0-1.129 10.3v16.969a1.974 1.974 0 0 0 1.968 1.971H46.2a1.974 1.974 0 0 0 1.973-1.973V38.156a1.974 1.974 0 0 0-1.973-1.974h-6.21c.289-7.874 2.373-11.863 6.21-11.863z" class="cls-1" data-name="Path 10" transform="translate(0 -12.333)"/>
</svg>
