<svg xmlns="http://www.w3.org/2000/svg" id="Group_7" width="42.072" height="42.072" data-name="Group 7" viewBox="0 0 42.072 42.072">
    <defs>
        <style>
            .cls-1{fill:#3bb4c4}.cls-2{fill:#fff}
        </style>
    </defs>
    <circle id="Ellipse_9" cx="21.036" cy="21.036" r="21.036" class="cls-1" data-name="Ellipse 9"/>
    <path id="icon" d="M8.948 24.269a16.935 16.935 0 0 1-3.84-.347c-2.264-.494-3.69-1.458-4.359-2.948l-.732-1.632 1.783-.164a15.663 15.663 0 0 0 4.082-.866c-3.093-.5-4.6-1.871-4.6-4.2v-1.275H2.56a4.149 4.149 0 0 0 .76-.064A6.9 6.9 0 0 1 0 6.389V6.13a7.761 7.761 0 0 1 .478-3.286 5.905 5.905 0 0 1 1.143-1.8L2.584 0l.937 1.072C6.8 4.816 9.827 6.756 12.781 7a5.745 5.745 0 0 1 9.747-4.1c.588.121 1.226.223 1.9.3l1.807.212-.815 1.632q-.593 1.19-1.19 2.381a1.82 1.82 0 0 1-.252.508c-.051.082-.226.336-.233.347a1.22 1.22 0 0 0-.1.168V11.5c-.005 7.887-7.631 12.769-14.697 12.769zM2.765 4.028a6.417 6.417 0 0 0-.208 2.088v.274a4.49 4.49 0 0 0 3.569 4.845l.891.284v.934c0 1.12-1.063 2.2-2.644 2.678.745.566 2.242.842 4.575.842h1.277v1.277c0 1.759-1.924 3.221-5.28 4.011a14.211 14.211 0 0 0 4 .454c5.861 0 12.136-4.1 12.136-10.214V8.306a2.131 2.131 0 0 1 .29-1.039c.068-.126.143-.251.245-.4l.092-.135.009-.014.037-.054.1-.2.164-.329.012-.025.315-.631c-.29-.055-.528-.105-.75-.156l-.391-.089-.27-.3a3.2 3.2 0 0 0-2.41-1.1 3.056 3.056 0 0 0-3.194 3.194 4.542 4.542 0 0 1-.046.746 1.871 1.871 0 0 1-1.871 1.809 11.373 11.373 0 0 1-5.5-1.464 21.269 21.269 0 0 1-5.148-4.091z" class="cls-2" transform="translate(7.889 8.765)"/>
</svg>
